<svg xmlns="http://www.w3.org/2000/svg" xmlns:xlink="http://www.w3.org/1999/xlink" width="500" zoomAndPan="magnify" viewBox="0 0 375 299.999988" height="400" preserveAspectRatio="xMidYMid meet" version="1.0"><defs><clipPath id="5cdbf18cd7"><path d="M 17.371094 200 L 244 200 L 244 263.773438 L 17.371094 263.773438 Z M 17.371094 200 " clip-rule="nonzero"/></clipPath><clipPath id="b564a4945e"><path d="M 87 35.773438 L 161 35.773438 L 161 135 L 87 135 Z M 87 35.773438 " clip-rule="nonzero"/></clipPath><clipPath id="d4287eec81"><path d="M 104 35.773438 L 181 35.773438 L 181 199 L 104 199 Z M 104 35.773438 " clip-rule="nonzero"/></clipPath></defs><g clip-path="url(#5cdbf18cd7)"><path fill="#fffc00" d="M 80.96875 232.332031 C 80.96875 214.878906 66.832031 200.675781 49.3125 200.675781 C 31.863281 200.675781 17.660156 214.8125 17.660156 232.332031 C 17.660156 249.78125 31.796875 263.984375 49.3125 263.984375 C 66.765625 263.984375 80.96875 249.78125 80.96875 232.332031 Z M 211.441406 263.984375 C 193.992188 263.984375 179.789062 249.847656 179.789062 232.332031 C 179.789062 214.878906 193.925781 200.675781 211.441406 200.675781 C 228.960938 200.675781 243.097656 214.8125 243.097656 232.332031 C 243.097656 249.78125 228.894531 263.984375 211.441406 263.984375 Z M 211.441406 263.984375 " fill-opacity="1" fill-rule="nonzero"/></g><path fill="#13125e" d="M 114.042969 198.445312 C 114.042969 198.445312 117.019531 206.222656 109.171875 206.222656 C 91.453125 206.222656 91.585938 216.570312 91.585938 216.570312 L 129.804688 216.570312 L 125.070312 198.445312 Z M 114.042969 198.445312 " fill-opacity="1" fill-rule="nonzero"/><path fill="#13125e" d="M 89.21875 238.621094 C 95.984375 220.898438 89.152344 200.472656 72.242188 190.597656 C 55.332031 180.722656 34.164062 184.847656 22.054688 199.390625 Z M 89.21875 238.621094 " fill-opacity="1" fill-rule="nonzero"/><path fill="#fffc00" d="M 153.136719 177.339844 C 167.546875 202.90625 148.675781 216.570312 148.675781 216.570312 L 108.699219 216.570312 C 103.695312 214.675781 92.601562 203.449219 85.363281 186.808594 C 78.128906 170.171875 103.152344 117.953125 103.152344 117.953125 C 92.601562 104.628906 65.074219 110.71875 65.074219 110.71875 L 65.074219 139.058594 L 80.96875 134.59375 L 58.175781 181.261719 L 100.378906 232.332031 L 248.101562 232.332031 L 217.53125 177.339844 Z M 153.136719 177.339844 " fill-opacity="1" fill-rule="nonzero"/><path fill="#ffffff" d="M 65.074219 232.332031 C 65.074219 223.605469 58.039062 216.570312 49.3125 216.570312 C 40.589844 216.570312 33.554688 223.605469 33.554688 232.332031 C 33.554688 241.054688 40.589844 248.089844 49.3125 248.089844 C 58.039062 248.089844 65.074219 241.054688 65.074219 232.332031 Z M 211.441406 248.089844 C 202.71875 248.089844 195.683594 241.054688 195.683594 232.332031 C 195.683594 223.605469 202.71875 216.570312 211.441406 216.570312 C 220.167969 216.570312 227.203125 223.605469 227.203125 232.332031 C 227.203125 241.054688 220.167969 248.089844 211.441406 248.089844 Z M 211.441406 248.089844 " fill-opacity="1" fill-rule="nonzero"/><path fill="#13125e" d="M 142.585938 177.339844 L 232.003906 177.339844 L 232.003906 160.160156 L 142.585938 160.160156 Z M 206.4375 186 C 230.515625 186 255.878906 206.761719 255.878906 232.332031 L 168.695312 232.332031 C 168.695312 200.945312 174.511719 186 206.4375 186 Z M 118.847656 115.179688 C 125.339844 111.867188 130.613281 79.0625 149.890625 80.210938 C 169.234375 81.292969 177.554688 121.269531 179.789062 131.820312 L 149.824219 134.59375 C 147.59375 123.5 140.964844 109.296875 140.964844 109.296875 C 140.964844 109.296875 137.109375 128.4375 127.367188 130.128906 C 121.6875 131.074219 110.933594 132.429688 102.882812 133.375 L 100.921875 119.035156 C 107.484375 118.292969 115.328125 116.941406 118.847656 115.179688 Z M 118.847656 115.179688 " fill-opacity="1" fill-rule="nonzero"/><g clip-path="url(#b564a4945e)"><path fill="#ffffff" d="M 121.484375 55.1875 C 121.484375 65.941406 130.207031 74.597656 140.894531 74.597656 C 151.648438 74.597656 160.308594 65.875 160.308594 55.1875 C 160.308594 44.5 151.648438 35.773438 140.894531 35.773438 C 130.207031 35.773438 121.484375 44.5 121.484375 55.1875 Z M 90.371094 120.1875 C 90.371094 120.1875 95.105469 119.847656 100.855469 119.105469 L 102.816406 133.445312 C 97 134.121094 92.601562 134.59375 92.601562 134.59375 C 87.054688 129.589844 86.246094 128.507812 90.371094 120.1875 Z M 90.371094 120.1875 " fill-opacity="1" fill-rule="nonzero"/></g><path fill="#ffffff" d="M 197.578125 160.160156 L 267.515625 160.160156 L 267.515625 92.386719 L 197.578125 92.386719 Z M 241.339844 181.261719 C 241.339844 180.316406 242.148438 179.503906 243.097656 179.503906 L 296.9375 179.503906 C 297.882812 179.503906 298.695312 180.316406 298.695312 181.261719 C 298.695312 182.210938 297.882812 183.023438 296.9375 183.023438 L 243.097656 183.023438 C 242.082031 183.023438 241.339844 182.210938 241.339844 181.261719 Z M 259.058594 195.671875 C 259.058594 194.722656 259.871094 193.910156 260.816406 193.910156 L 342.457031 193.910156 C 343.402344 193.910156 344.214844 194.722656 344.214844 195.671875 C 344.214844 196.617188 343.402344 197.429688 342.457031 197.429688 L 260.816406 197.429688 C 259.871094 197.429688 259.058594 196.683594 259.058594 195.671875 Z M 241.339844 220.695312 C 241.339844 219.75 242.148438 218.9375 243.097656 218.9375 L 310.261719 218.9375 C 311.207031 218.9375 312.019531 219.75 312.019531 220.695312 C 312.019531 221.644531 311.207031 222.457031 310.261719 222.457031 L 243.097656 222.457031 C 242.082031 222.457031 241.339844 221.644531 241.339844 220.695312 Z M 225.445312 210.011719 C 225.445312 209.0625 226.253906 208.25 227.203125 208.25 L 287.535156 208.25 C 288.480469 208.25 289.292969 209.0625 289.292969 210.011719 C 289.292969 210.957031 288.480469 211.769531 287.535156 211.769531 L 227.203125 211.769531 C 226.1875 211.769531 225.445312 210.957031 225.445312 210.011719 Z M 274.546875 144.0625 C 274.546875 143.117188 275.359375 142.304688 276.308594 142.304688 L 354.089844 142.304688 C 355.039062 142.304688 355.851562 143.117188 355.851562 144.0625 C 355.851562 145.007812 355.039062 145.820312 354.089844 145.820312 L 276.375 145.820312 C 275.359375 145.820312 274.546875 145.007812 274.546875 144.0625 Z M 277.726562 128.507812 C 277.726562 127.558594 278.539062 126.746094 279.484375 126.746094 L 330.824219 126.746094 C 331.769531 126.746094 332.582031 127.558594 332.582031 128.507812 C 332.582031 129.453125 331.769531 130.265625 330.824219 130.265625 L 279.484375 130.265625 C 278.539062 130.265625 277.726562 129.453125 277.726562 128.507812 Z M 277.726562 128.507812 " fill-opacity="1" fill-rule="nonzero"/><g clip-path="url(#d4287eec81)"><path fill="#fffc00" d="M 109.308594 47.882812 L 160.308594 56.132812 C 160.308594 55.796875 160.375 55.523438 160.375 55.1875 C 160.375 44.5 151.648438 35.773438 140.894531 35.773438 C 132.710938 35.773438 125.746094 40.847656 122.902344 47.949219 L 109.648438 45.851562 Z M 179.789062 131.820312 C 182.019531 142.371094 179.246094 160.160156 168.695312 160.160156 L 142.585938 160.160156 C 127.03125 160.160156 122.566406 175.175781 129.261719 198.445312 L 112.082031 198.445312 C 103.761719 166.246094 100.988281 156.777344 112.082031 151.230469 C 123.175781 145.6875 152.054688 145.6875 149.824219 134.59375 Z M 179.789062 131.820312 " fill-opacity="1" fill-rule="nonzero"/></g></svg>