<svg xmlns="http://www.w3.org/2000/svg" xmlns:xlink="http://www.w3.org/1999/xlink" width="170" zoomAndPan="magnify" viewBox="0 0 127.5 52.499999" height="70" preserveAspectRatio="xMidYMid meet" version="1.0"><defs><g/></defs><g fill="#fff8f8" fill-opacity="1"><g transform="translate(5.554247, 33.589015)"><g><path d="M 10.65625 0 L 9.609375 -3.4375 L 4.34375 -3.4375 L 3.296875 0 L 0 0 L 5.09375 -14.5 L 8.84375 -14.5 L 13.953125 0 Z M 8.875 -6 C 7.914062 -9.125 7.375 -10.890625 7.25 -11.296875 C 7.125 -11.703125 7.035156 -12.023438 6.984375 -12.265625 C 6.765625 -11.421875 6.144531 -9.332031 5.125 -6 Z M 8.875 -6 "/></g></g></g><g fill="#fff8f8" fill-opacity="1"><g transform="translate(19.513136, 33.589015)"><g><path d="M 0.609375 -4.1875 L 0.609375 -6.65625 L 5.90625 -6.65625 L 5.90625 -4.1875 Z M 0.609375 -4.1875 "/></g></g></g><g fill="#fffc00" fill-opacity="1"><g transform="translate(26.023352, 33.589015)"><g><path d="M 14.625 0 L 10.734375 0 L 4.453125 -10.921875 L 4.359375 -10.921875 C 4.492188 -8.992188 4.5625 -7.617188 4.5625 -6.796875 L 4.5625 0 L 1.8125 0 L 1.8125 -14.4375 L 5.6875 -14.4375 L 11.953125 -3.625 L 12.03125 -3.625 C 11.925781 -5.5 11.875 -6.828125 11.875 -7.609375 L 11.875 -14.4375 L 14.625 -14.4375 Z M 14.625 0 "/></g></g></g><g fill="#fffc00" fill-opacity="1"><g transform="translate(42.471725, 33.589015)"><g><path d="M 10.140625 0 L 1.8125 0 L 1.8125 -14.4375 L 10.140625 -14.4375 L 10.140625 -11.9375 L 4.875 -11.9375 L 4.875 -8.765625 L 9.765625 -8.765625 L 9.765625 -6.25 L 4.875 -6.25 L 4.875 -2.53125 L 10.140625 -2.53125 Z M 10.140625 0 "/></g></g></g><g fill="#fffc00" fill-opacity="1"><g transform="translate(53.802827, 33.589015)"><g><path d="M 13.5 0 L 10 0 L 6.640625 -5.46875 L 3.28125 0 L 0 0 L 4.796875 -7.453125 L 0.3125 -14.4375 L 3.6875 -14.4375 L 6.796875 -9.25 L 9.84375 -14.4375 L 13.15625 -14.4375 L 8.609375 -7.28125 Z M 13.5 0 "/></g></g></g><g fill="#fffc00" fill-opacity="1"><g transform="translate(67.297406, 33.589015)"><g><path d="M 7.390625 0 L 4.328125 0 L 4.328125 -11.890625 L 0.40625 -11.890625 L 0.40625 -14.4375 L 11.3125 -14.4375 L 11.3125 -11.890625 L 7.390625 -11.890625 Z M 7.390625 0 "/></g></g></g><g fill="#fffc00" fill-opacity="1"><g transform="translate(79.013783, 33.589015)"><g><path d="M 7.296875 -8.109375 L 13.03125 -8.109375 L 13.03125 -0.625 C 12.101562 -0.320312 11.226562 -0.109375 10.40625 0.015625 C 9.582031 0.140625 8.742188 0.203125 7.890625 0.203125 C 5.710938 0.203125 4.046875 -0.4375 2.890625 -1.71875 C 1.742188 -3 1.171875 -4.835938 1.171875 -7.234375 C 1.171875 -9.566406 1.835938 -11.382812 3.171875 -12.6875 C 4.503906 -14 6.351562 -14.65625 8.71875 -14.65625 C 10.207031 -14.65625 11.640625 -14.359375 13.015625 -13.765625 L 12 -11.3125 C 10.9375 -11.84375 9.835938 -12.109375 8.703125 -12.109375 C 7.378906 -12.109375 6.316406 -11.660156 5.515625 -10.765625 C 4.722656 -9.878906 4.328125 -8.6875 4.328125 -7.1875 C 4.328125 -5.613281 4.644531 -4.410156 5.28125 -3.578125 C 5.925781 -2.753906 6.863281 -2.34375 8.09375 -2.34375 C 8.726562 -2.34375 9.375 -2.410156 10.03125 -2.546875 L 10.03125 -5.5625 L 7.296875 -5.5625 Z M 7.296875 -8.109375 "/></g></g></g><g fill="#fffc00" fill-opacity="1"><g transform="translate(93.664196, 33.589015)"><g><path d="M 10.140625 0 L 1.8125 0 L 1.8125 -14.4375 L 10.140625 -14.4375 L 10.140625 -11.9375 L 4.875 -11.9375 L 4.875 -8.765625 L 9.765625 -8.765625 L 9.765625 -6.25 L 4.875 -6.25 L 4.875 -2.53125 L 10.140625 -2.53125 Z M 10.140625 0 "/></g></g></g><g fill="#fffc00" fill-opacity="1"><g transform="translate(104.995298, 33.589015)"><g><path d="M 14.625 0 L 10.734375 0 L 4.453125 -10.921875 L 4.359375 -10.921875 C 4.492188 -8.992188 4.5625 -7.617188 4.5625 -6.796875 L 4.5625 0 L 1.8125 0 L 1.8125 -14.4375 L 5.6875 -14.4375 L 11.953125 -3.625 L 12.03125 -3.625 C 11.925781 -5.5 11.875 -6.828125 11.875 -7.609375 L 11.875 -14.4375 L 14.625 -14.4375 Z M 14.625 0 "/></g></g></g></svg>